<mxfile host="app.diagrams.net" modified="2023-06-08T14:20:22.488Z" agent="Mozilla/5.0 (Windows NT 10.0; Win64; x64) AppleWebKit/537.36 (KHTML, like Gecko) Chrome/110.0.0.0 Safari/537.36" etag="8hiPXpznHDSgNo7zk-BW" version="21.3.7" type="device">
  <diagram name="Page-1" id="lQAtyJEYUMZ2EdfCeFJE">
    <mxGraphModel dx="1194" dy="734" grid="1" gridSize="10" guides="1" tooltips="1" connect="1" arrows="1" fold="1" page="1" pageScale="1" pageWidth="827" pageHeight="1169" math="0" shadow="0">
      <root>
        <mxCell id="0" />
        <mxCell id="1" parent="0" />
        <mxCell id="pq5zNLanm1SsgRJw52NB-1" value="DPS Greedy Production" style="rounded=1;whiteSpace=wrap;html=1;gradientColor=#b3b3b3;gradientDirection=radial;" vertex="1" parent="1">
          <mxGeometry x="320" y="300" width="120" height="60" as="geometry" />
        </mxCell>
        <mxCell id="pq5zNLanm1SsgRJw52NB-2" value="DPS Vehicule" style="rounded=1;whiteSpace=wrap;html=1;fillColor=default;strokeColor=none;gradientColor=#d27979;gradientDirection=radial;" vertex="1" parent="1">
          <mxGeometry x="72" y="300" width="120" height="60" as="geometry" />
        </mxCell>
        <mxCell id="pq5zNLanm1SsgRJw52NB-3" value="DPS Production" style="rounded=1;whiteSpace=wrap;html=1;gradientColor=none;fillColor=#7fb0f5;" vertex="1" parent="1">
          <mxGeometry x="560" y="300" width="120" height="60" as="geometry" />
        </mxCell>
        <mxCell id="pq5zNLanm1SsgRJw52NB-8" style="rounded=0;orthogonalLoop=1;jettySize=auto;html=1;entryX=0.5;entryY=0;entryDx=0;entryDy=0;" edge="1" parent="1" source="pq5zNLanm1SsgRJw52NB-4" target="pq5zNLanm1SsgRJw52NB-2">
          <mxGeometry relative="1" as="geometry" />
        </mxCell>
        <mxCell id="pq5zNLanm1SsgRJw52NB-4" value="Données véhicule" style="ellipse;whiteSpace=wrap;html=1;" vertex="1" parent="1">
          <mxGeometry x="87" y="200" width="90" height="50" as="geometry" />
        </mxCell>
        <mxCell id="pq5zNLanm1SsgRJw52NB-5" value="Données production" style="ellipse;whiteSpace=wrap;html=1;" vertex="1" parent="1">
          <mxGeometry x="450" y="200" width="90" height="50" as="geometry" />
        </mxCell>
        <mxCell id="pq5zNLanm1SsgRJw52NB-6" value="" style="endArrow=classic;html=1;rounded=0;exitX=0;exitY=1;exitDx=0;exitDy=0;entryX=0.5;entryY=0;entryDx=0;entryDy=0;" edge="1" parent="1" source="pq5zNLanm1SsgRJw52NB-5" target="pq5zNLanm1SsgRJw52NB-1">
          <mxGeometry width="50" height="50" relative="1" as="geometry">
            <mxPoint x="390" y="400" as="sourcePoint" />
            <mxPoint x="440" y="350" as="targetPoint" />
          </mxGeometry>
        </mxCell>
        <mxCell id="pq5zNLanm1SsgRJw52NB-7" value="" style="endArrow=classic;html=1;rounded=0;exitX=1;exitY=1;exitDx=0;exitDy=0;entryX=0.5;entryY=0;entryDx=0;entryDy=0;" edge="1" parent="1" source="pq5zNLanm1SsgRJw52NB-5" target="pq5zNLanm1SsgRJw52NB-3">
          <mxGeometry width="50" height="50" relative="1" as="geometry">
            <mxPoint x="468" y="248" as="sourcePoint" />
            <mxPoint x="390" y="310" as="targetPoint" />
          </mxGeometry>
        </mxCell>
        <mxCell id="pq5zNLanm1SsgRJw52NB-9" value="" style="shape=flexArrow;endArrow=classic;html=1;rounded=0;entryX=0;entryY=0.25;entryDx=0;entryDy=0;exitX=1;exitY=0.25;exitDx=0;exitDy=0;fillColor=default;gradientColor=#d27979;" edge="1" parent="1" source="pq5zNLanm1SsgRJw52NB-1" target="pq5zNLanm1SsgRJw52NB-3">
          <mxGeometry width="50" height="50" relative="1" as="geometry">
            <mxPoint x="390" y="400" as="sourcePoint" />
            <mxPoint x="440" y="350" as="targetPoint" />
          </mxGeometry>
        </mxCell>
        <mxCell id="pq5zNLanm1SsgRJw52NB-10" value="" style="shape=flexArrow;endArrow=classic;html=1;rounded=0;exitX=0.085;exitY=1.025;exitDx=0;exitDy=0;exitPerimeter=0;fillColor=default;gradientColor=#d27978;" edge="1" parent="1">
          <mxGeometry width="50" height="50" relative="1" as="geometry">
            <mxPoint x="191.20000000000005" y="322" as="sourcePoint" />
            <mxPoint x="320" y="320" as="targetPoint" />
          </mxGeometry>
        </mxCell>
        <mxCell id="pq5zNLanm1SsgRJw52NB-11" value="&lt;font style=&quot;font-size: 11px;&quot;&gt;Stratégie de&lt;br style=&quot;border-color: var(--border-color);&quot;&gt;recharge potentielle&lt;/font&gt;" style="text;html=1;align=center;verticalAlign=middle;resizable=0;points=[];autosize=1;strokeColor=none;fillColor=none;" vertex="1" parent="1">
          <mxGeometry x="186" y="281" width="120" height="40" as="geometry" />
        </mxCell>
        <mxCell id="pq5zNLanm1SsgRJw52NB-12" value="" style="shape=flexArrow;endArrow=classic;html=1;rounded=0;fillColor=default;exitX=1;exitY=0.75;exitDx=0;exitDy=0;entryX=0;entryY=0.75;entryDx=0;entryDy=0;gradientColor=#b3b3b3;" edge="1" parent="1" source="pq5zNLanm1SsgRJw52NB-1" target="pq5zNLanm1SsgRJw52NB-3">
          <mxGeometry width="50" height="50" relative="1" as="geometry">
            <mxPoint x="490" y="460" as="sourcePoint" />
            <mxPoint x="540" y="410" as="targetPoint" />
          </mxGeometry>
        </mxCell>
        <mxCell id="pq5zNLanm1SsgRJw52NB-13" value="" style="shape=flexArrow;endArrow=classic;html=1;rounded=0;fillColor=default;exitX=1;exitY=0.75;exitDx=0;exitDy=0;gradientColor=#d27979;gradientDirection=east;" edge="1" parent="1">
          <mxGeometry width="50" height="50" relative="1" as="geometry">
            <mxPoint x="680" y="309" as="sourcePoint" />
            <mxPoint x="820" y="310" as="targetPoint" />
          </mxGeometry>
        </mxCell>
        <mxCell id="pq5zNLanm1SsgRJw52NB-14" value="" style="shape=flexArrow;endArrow=classic;html=1;rounded=0;fillColor=#7fb0f5;exitX=1;exitY=0.75;exitDx=0;exitDy=0;strokeColor=#6c8ebf;" edge="1" parent="1">
          <mxGeometry width="50" height="50" relative="1" as="geometry">
            <mxPoint x="680" y="351" as="sourcePoint" />
            <mxPoint x="820" y="350" as="targetPoint" />
          </mxGeometry>
        </mxCell>
        <mxCell id="pq5zNLanm1SsgRJw52NB-15" value="&lt;font style=&quot;font-size: 11px;&quot;&gt;Stratégie de recharge&lt;/font&gt;" style="text;html=1;align=center;verticalAlign=middle;resizable=0;points=[];autosize=1;strokeColor=none;fillColor=none;" vertex="1" parent="1">
          <mxGeometry x="669" y="280" width="130" height="30" as="geometry" />
        </mxCell>
        <mxCell id="pq5zNLanm1SsgRJw52NB-16" value="&lt;font style=&quot;font-size: 11px;&quot;&gt;Stratégie de production&lt;/font&gt;" style="text;html=1;align=center;verticalAlign=middle;resizable=0;points=[];autosize=1;strokeColor=none;fillColor=none;" vertex="1" parent="1">
          <mxGeometry x="669" y="321" width="140" height="30" as="geometry" />
        </mxCell>
        <mxCell id="pq5zNLanm1SsgRJw52NB-17" value="&lt;font style=&quot;font-size: 11px;&quot;&gt;Stratégie de&lt;br style=&quot;border-color: var(--border-color);&quot;&gt;recharge potentielle&lt;/font&gt;" style="text;html=1;align=center;verticalAlign=middle;resizable=0;points=[];autosize=1;strokeColor=none;fillColor=none;" vertex="1" parent="1">
          <mxGeometry x="430" y="275" width="120" height="40" as="geometry" />
        </mxCell>
        <mxCell id="pq5zNLanm1SsgRJw52NB-18" value="&lt;font style=&quot;font-size: 11px;&quot;&gt;Borne supérieure&lt;/font&gt;" style="text;html=1;align=center;verticalAlign=middle;resizable=0;points=[];autosize=1;strokeColor=none;fillColor=none;" vertex="1" parent="1">
          <mxGeometry x="435" y="320" width="110" height="30" as="geometry" />
        </mxCell>
      </root>
    </mxGraphModel>
  </diagram>
</mxfile>
